# 3ds Max Wavefront OBJ Exporter v0.97b - (c)2007 guruware
# File Created: 30.07.2013 09:28:15

#
# object card_square
#

v  0.998381 -0.000080 -0.024772
v  0.998381 -0.000080 0.025228
v  0.998399 -0.815274 0.025228
v  0.998399 -0.815274 -0.024772
v  0.998363 0.812070 -0.024772
v  0.990363 0.852107 -0.024772
v  0.990363 0.852107 0.025228
v  0.998363 0.812070 0.025228
v  0.974706 0.889814 -0.024772
v  0.974706 0.889814 0.025228
v  0.951993 0.923742 -0.024772
v  0.951993 0.923742 0.025228
v  0.923098 0.952587 -0.024772
v  0.923098 0.952587 0.025228
v  0.889130 0.975240 -0.024772
v  0.889130 0.975240 0.025228
v  0.851397 0.990832 -0.024772
v  0.851397 0.990832 0.025228
v  0.811346 0.998762 -0.024772
v  0.811346 0.998762 0.025228
v  -0.000491 0.998745 -0.024772
v  -0.000491 0.998745 0.025228
v  -0.811510 0.998727 -0.024772
v  -0.851547 0.990726 -0.024772
v  -0.851547 0.990726 0.025228
v  -0.811510 0.998727 0.025228
v  -0.889254 0.975069 -0.024772
v  -0.889254 0.975069 0.025228
v  -0.923182 0.952357 -0.024772
v  -0.923182 0.952357 0.025228
v  -0.952027 0.923462 -0.024772
v  -0.952027 0.923462 0.025228
v  -0.974680 0.889494 -0.024772
v  -0.974680 0.889494 0.025228
v  -0.990271 0.851760 -0.024772
v  -0.990271 0.851760 0.025228
v  -0.998202 0.811709 -0.024772
v  -0.998202 0.811709 0.025228
v  -0.998184 -0.000441 -0.024772
v  -0.998184 -0.000441 0.025228
v  -0.998166 -0.815635 -0.024772
v  -0.990166 -0.855672 -0.024772
v  -0.990166 -0.855672 0.025228
v  -0.998166 -0.815635 0.025228
v  -0.974509 -0.893379 -0.024772
v  -0.974509 -0.893379 0.025228
v  -0.951796 -0.927307 -0.024772
v  -0.951796 -0.927307 0.025228
v  -0.922901 -0.956152 -0.024772
v  -0.922901 -0.956152 0.025228
v  -0.888934 -0.978805 -0.024772
v  -0.888934 -0.978805 0.025228
v  -0.851200 -0.994397 -0.024772
v  -0.851200 -0.994397 0.025228
v  -0.811149 -1.002327 -0.024772
v  -0.811149 -1.002327 0.025228
v  -0.000130 -1.002309 -0.024772
v  -0.000130 -1.002309 0.025228
v  0.811707 -1.002291 -0.024772
v  0.851744 -0.994291 -0.024772
v  0.851744 -0.994291 0.025228
v  0.811707 -1.002291 0.025228
v  0.889451 -0.978634 -0.024772
v  0.889451 -0.978634 0.025228
v  0.923379 -0.955921 -0.024772
v  0.923379 -0.955921 0.025228
v  0.952224 -0.927026 -0.024772
v  0.952224 -0.927026 0.025228
v  0.974877 -0.893058 -0.024772
v  0.974877 -0.893058 0.025228
v  0.990468 -0.855325 -0.024772
v  0.990468 -0.855325 0.025228
v  -0.000311 -0.000260 -0.024772
v  -0.000311 -0.000260 0.025228
# 74 vertices

vn 1.000000 0.000022 -0.000000
vn 0.995141 0.098463 -0.000000
vn 0.956686 0.291122 -0.000000
vn 0.995141 0.098462 -0.000000
vn 0.881510 0.472164 -0.000000
vn 0.772460 0.635064 -0.000000
vn 0.633719 0.773564 -0.000000
vn 0.633719 0.773563 -0.000000
vn 0.470628 0.882332 -0.000000
vn 0.289452 0.957193 -0.000000
vn 0.097573 0.995228 -0.000000
vn -0.000022 1.000000 -0.000000
vn -0.098463 0.995141 -0.000000
vn -0.291117 0.956688 -0.000000
vn -0.472162 0.881512 -0.000000
vn -0.635067 0.772457 -0.000000
vn -0.773566 0.633716 -0.000000
vn -0.882333 0.470625 -0.000000
vn -0.957193 0.289452 -0.000000
vn -0.995228 0.097573 -0.000000
vn -0.995228 0.097573 0.000000
vn -1.000000 -0.000022 0.000000
vn -0.995141 -0.098462 0.000000
vn -0.956687 -0.291118 -0.000000
vn -0.995141 -0.098462 -0.000000
vn -0.881511 -0.472164 -0.000000
vn -0.772457 -0.635067 -0.000000
vn -0.633719 -0.773564 -0.000000
vn -0.633719 -0.773563 -0.000000
vn -0.470628 -0.882332 -0.000000
vn -0.289447 -0.957194 -0.000000
vn -0.097569 -0.995229 -0.000000
vn 0.000022 -1.000000 -0.000000
vn 0.098463 -0.995141 -0.000000
vn 0.291117 -0.956688 -0.000000
vn 0.472162 -0.881512 -0.000000
vn 0.635067 -0.772457 -0.000000
vn 0.773566 -0.633716 -0.000000
vn 0.882333 -0.470625 -0.000000
vn 0.957193 -0.289452 -0.000000
vn 0.980955 -0.194236 -0.000000
vn 0.000000 0.000000 -1.000000
vn -0.000000 -0.000000 -1.000000
vn 0.000000 -0.000000 -1.000000
vn -0.000000 0.000000 1.000000
vn -0.000000 0.000001 1.000000
vn -0.000011 0.000007 1.000000
vn -0.000001 -0.000000 1.000000
vn 0.000003 -0.000000 1.000000
vn 0.000000 0.000000 1.000000
vn 0.000000 -0.000000 1.000000
vn 0.000010 0.000004 1.000000
vn -0.000001 0.000001 1.000000
vn -0.000000 -0.000000 1.000000
vn -0.000011 -0.000005 -1.000000
vn -0.000000 0.000000 -1.000000
vn 0.000001 -0.000001 -1.000000
vn -0.000012 0.000002 -1.000000
vn 0.000002 -0.000002 -1.000000
vn 0.000000 -0.000001 -1.000000
vn 0.000006 0.000003 1.000000
vn 0.000001 0.000000 1.000000
vn 0.000001 0.000001 1.000000
vn 0.000000 0.000001 1.000000
vn -0.000001 0.000000 1.000000
vn -0.000006 0.000003 1.000000
# 66 vertex normals

vt 0.531364 0.096920 0.011199
vt 0.525414 0.096904 0.011199
vt 0.525681 0.000000 0.011199
vt 0.531625 0.000016 -0.011199
vt 0.531131 0.193698 0.011199
vt 0.531134 0.198586 0.011199
vt 0.525133 0.198573 0.011199
vt 0.525158 0.193684 0.011199
vt 0.531140 0.203497 0.011199
vt 0.525109 0.203487 0.011199
vt 0.531148 0.208433 0.011199
vt 0.525086 0.208425 0.011199
vt 0.531157 0.213395 0.011199
vt 0.525064 0.213388 0.011199
vt 0.531169 0.218382 0.011199
vt 0.525044 0.218378 0.011199
vt 0.531182 0.223396 0.011199
vt 0.525024 0.223393 0.011199
vt 0.531198 0.228436 0.011199
vt 0.525007 0.228436 0.011199
vt 0.531230 0.329235 0.011199
vt 0.524997 0.329237 0.011199
vt 0.531309 0.430713 0.011199
vt 0.531346 0.435871 0.011199
vt 0.524995 0.435879 0.011199
vt 0.525022 0.430718 0.011199
vt 0.531385 0.441081 0.011199
vt 0.524971 0.441092 0.011199
vt 0.531428 0.446343 0.011199
vt 0.524949 0.446357 0.011199
vt 0.531473 0.451658 0.011199
vt 0.524928 0.451675 0.011199
vt 0.531521 0.457027 0.011199
vt 0.524910 0.457047 0.011199
vt 0.531571 0.462451 0.011199
vt 0.524894 0.462473 0.011199
vt 0.531625 0.467929 -0.011199
vt 0.524879 0.467955 0.011199
vt 0.532076 0.578057 0.011199
vt 0.525270 0.578084 0.011199
vt 0.532536 0.689455 0.011199
vt 0.532576 0.695063 0.011199
vt 0.525692 0.695090 0.011199
vt 0.525686 0.689482 0.011199
vt 0.532615 0.700698 0.011199
vt 0.525698 0.700726 0.011199
vt 0.532654 0.706359 0.011199
vt 0.525705 0.706388 0.011199
vt 0.532692 0.712047 0.011199
vt 0.525712 0.712075 0.011199
vt 0.532731 0.717759 0.011199
vt 0.525720 0.717788 0.011199
vt 0.532769 0.723496 0.011199
vt 0.525729 0.723525 0.011199
vt 0.532807 0.729257 0.011199
vt 0.525738 0.729286 0.011199
vt 0.533290 0.844148 0.011199
vt 0.526200 0.844177 0.011199
vt 0.533765 0.959383 0.011199
vt 0.533789 0.965180 0.011199
vt 0.526689 0.965208 0.011199
vt 0.526667 0.959411 0.011199
vt 0.533812 0.970978 0.011199
vt 0.526711 0.971005 0.011199
vt 0.533834 0.976777 0.011199
vt 0.526733 0.976804 0.011199
vt 0.533857 0.982576 0.011199
vt 0.526755 0.982603 0.011199
vt 0.533879 0.988375 0.011199
vt 0.526777 0.988402 0.011199
vt 0.533901 0.994174 0.011199
vt 0.526799 0.994201 0.011199
vt 0.533923 0.999973 0.011199
vt 0.526822 1.000000 0.011199
vt 0.046369 -0.000000 0.000000
vt 0.036441 0.001961 0.000000
vt 0.027087 0.005818 0.000000
vt 0.018667 0.011421 0.000000
vt 0.011504 0.018555 0.000000
vt 0.005873 0.026947 0.000000
vt 0.001992 0.036273 0.000000
vt 0.000009 0.046176 0.000000
vt 0.000004 0.247806 0.000000
vt 0.247372 0.247850 0.000000
vt 0.247417 0.000004 0.000000
vt 0.046280 0.992341 0.000000
vt 0.036355 0.990362 0.000000
vt 0.027008 0.986490 0.000000
vt 0.018597 0.980872 0.000000
vt 0.011447 0.973725 0.000000
vt 0.005831 0.965323 0.000000
vt 0.001966 0.955990 0.000000
vt -0.000000 0.946084 0.000000
vt 0.000004 0.745208 0.000000
vt 0.247372 0.745252 0.000000
vt 0.247328 0.992345 0.000000
vt 0.494943 0.745297 0.000000
vt 0.494939 0.946174 0.000000
vt 0.492956 0.956076 0.000000
vt 0.489074 0.965403 0.000000
vt 0.483444 0.973794 0.000000
vt 0.476281 0.980929 0.000000
vt 0.467861 0.986532 0.000000
vt 0.458507 0.990388 0.000000
vt 0.448578 0.992350 0.000000
vt 0.458507 0.492986 0.000000
vt 0.467861 0.489130 0.000000
vt 0.476281 0.483527 0.000000
vt 0.483444 0.476392 0.000000
vt 0.489074 0.468001 0.000000
vt 0.492956 0.458674 0.000000
vt 0.494939 0.448771 0.000000
vt 0.494943 0.247895 0.000000
vt 0.247328 0.494943 0.000000
vt 0.448578 0.494948 0.000000
vt -0.000000 0.448682 0.000000
vt 0.001966 0.458588 0.000000
vt 0.005831 0.467921 0.000000
vt 0.011447 0.476323 0.000000
vt 0.018597 0.483470 0.000000
vt 0.027008 0.489088 0.000000
vt 0.036355 0.492960 0.000000
vt 0.046280 0.494939 0.000000
vt 0.000009 0.543578 0.000000
vt 0.001992 0.533675 0.000000
vt 0.005873 0.524349 0.000000
vt 0.011504 0.515957 0.000000
vt 0.018667 0.508823 0.000000
vt 0.027087 0.503220 0.000000
vt 0.036441 0.499363 0.000000
vt 0.046369 0.497402 0.000000
vt 0.247417 0.497406 0.000000
vt 0.448668 0.497411 0.000000
vt 0.458593 0.499390 0.000000
vt 0.467940 0.503262 0.000000
vt 0.476351 0.508880 0.000000
vt 0.483501 0.516027 0.000000
vt 0.489117 0.524428 0.000000
vt 0.492982 0.533761 0.000000
vt 0.494948 0.543668 0.000000
vt 0.494948 0.046265 0.000000
vt 0.492982 0.036359 0.000000
vt 0.489117 0.027026 0.000000
vt 0.483501 0.018625 0.000000
vt 0.476351 0.011478 0.000000
vt 0.467940 0.005860 0.000000
vt 0.458593 0.001988 0.000000
vt 0.448668 0.000009 0.000000
# 148 texture coords

g card_square
s 2147483648
f 1/1/1 2/2/1 3/3/1 
f 3/3/1 4/4/1 1/1/1 
f 5/5/2 6/6/3 7/7/3 
f 7/7/3 8/8/4 5/5/2 
f 6/6/3 9/9/5 10/10/5 
f 10/10/5 7/7/3 6/6/3 
f 9/9/5 11/11/6 12/12/6 
f 12/12/6 10/10/5 9/9/5 
f 11/11/6 13/13/7 14/14/8 
f 14/14/8 12/12/6 11/11/6 
f 13/13/7 15/15/9 16/16/9 
f 16/16/9 14/14/8 13/13/7 
f 15/15/9 17/17/10 18/18/10 
f 18/18/10 16/16/9 15/15/9 
f 17/17/10 19/19/11 20/20/11 
f 20/20/11 18/18/10 17/17/10 
f 21/21/12 22/22/12 20/20/11 
f 20/20/11 19/19/11 21/21/12 
f 23/23/13 24/24/14 25/25/14 
f 25/25/14 26/26/13 23/23/13 
f 24/24/14 27/27/15 28/28/15 
f 28/28/15 25/25/14 24/24/14 
f 27/27/15 29/29/16 30/30/16 
f 30/30/16 28/28/15 27/27/15 
f 29/29/16 31/31/17 32/32/17 
f 32/32/17 30/30/16 29/29/16 
f 31/31/17 33/33/18 34/34/18 
f 34/34/18 32/32/17 31/31/17 
f 33/33/18 35/35/19 36/36/19 
f 36/36/19 34/34/18 33/33/18 
f 35/35/19 37/37/20 38/38/21 
f 38/38/21 36/36/19 35/35/19 
f 39/39/22 40/40/22 38/38/21 
f 38/38/21 37/37/20 39/39/22 
f 41/41/23 42/42/24 43/43/24 
f 43/43/24 44/44/25 41/41/23 
f 42/42/24 45/45/26 46/46/26 
f 46/46/26 43/43/24 42/42/24 
f 45/45/26 47/47/27 48/48/27 
f 48/48/27 46/46/26 45/45/26 
f 47/47/27 49/49/28 50/50/29 
f 50/50/29 48/48/27 47/47/27 
f 49/49/28 51/51/30 52/52/30 
f 52/52/30 50/50/29 49/49/28 
f 51/51/30 53/53/31 54/54/31 
f 54/54/31 52/52/30 51/51/30 
f 53/53/31 55/55/32 56/56/32 
f 56/56/32 54/54/31 53/53/31 
f 57/57/33 58/58/33 56/56/32 
f 56/56/32 55/55/32 57/57/33 
f 59/59/34 60/60/35 61/61/35 
f 61/61/35 62/62/34 59/59/34 
f 60/60/35 63/63/36 64/64/36 
f 64/64/36 61/61/35 60/60/35 
f 63/63/36 65/65/37 66/66/37 
f 66/66/37 64/64/36 63/63/36 
f 65/65/37 67/67/38 68/68/38 
f 68/68/38 66/66/37 65/65/37 
f 67/67/38 69/69/39 70/70/39 
f 70/70/39 68/68/38 67/67/38 
f 69/69/39 71/71/40 72/72/40 
f 72/72/40 70/70/39 69/69/39 
f 71/71/40 4/73/41 3/74/41 
f 3/74/41 72/72/40 71/71/40 
f 23/23/13 26/26/13 22/22/12 
f 22/22/12 21/21/12 23/23/13 
f 59/59/34 62/62/34 58/58/33 
f 58/58/33 57/57/33 59/59/34 
s off
f 55/75/42 53/76/42 51/77/42 
f 51/77/42 49/78/42 47/79/42 
f 55/75/42 51/77/42 47/79/42 
f 47/79/42 45/80/42 42/81/42 
f 42/81/43 41/82/43 39/83/43 
f 47/79/43 42/81/43 39/83/43 
f 55/75/43 47/79/43 39/83/43 
f 55/75/44 39/83/44 73/84/44 
f 57/85/44 55/75/44 73/84/44 
f 26/86/45 25/87/45 28/88/45 
f 28/88/46 30/89/46 32/90/46 
f 26/86/45 28/88/45 32/90/45 
f 32/90/47 34/91/47 36/92/47 
f 36/92/48 38/93/48 40/94/48 
f 32/90/49 36/92/49 40/94/49 
f 26/86/45 32/90/45 40/94/45 
f 26/86/50 40/94/50 74/95/50 
f 22/96/45 26/86/45 74/95/45 
f 74/95/51 2/97/51 8/98/51 
f 8/98/52 7/99/52 10/100/52 
f 74/95/53 8/98/53 10/100/53 
f 10/100/48 12/101/48 14/102/48 
f 14/102/54 16/103/54 18/104/54 
f 10/100/50 14/102/50 18/104/50 
f 74/95/50 10/100/50 18/104/50 
f 74/95/51 18/104/51 20/105/51 
f 22/96/45 74/95/45 20/105/45 
f 17/106/42 15/107/42 13/108/42 
f 13/108/42 11/109/42 9/110/42 
f 17/106/42 13/108/42 9/110/42 
f 9/110/55 6/111/55 5/112/55 
f 5/112/56 1/113/56 73/84/56 
f 9/110/57 5/112/57 73/84/57 
f 17/106/43 9/110/43 73/84/43 
f 17/106/43 73/84/43 21/114/43 
f 19/115/42 17/106/42 21/114/42 
s 2147483648
f 5/5/2 8/8/4 2/2/1 
f 2/2/1 1/1/1 5/5/2 
f 41/41/23 44/44/25 40/40/22 
f 40/40/22 39/39/22 41/41/23 
s off
f 37/116/58 35/117/58 33/118/58 
f 33/118/42 31/119/42 29/120/42 
f 37/116/59 33/118/59 29/120/59 
f 29/120/42 27/121/42 24/122/42 
f 24/122/42 23/123/42 21/114/42 
f 29/120/42 24/122/42 21/114/42 
f 37/116/60 29/120/60 21/114/60 
f 37/116/43 21/114/43 73/84/43 
f 39/83/56 37/116/56 73/84/56 
f 44/124/61 43/125/61 46/126/61 
f 46/126/62 48/127/62 50/128/62 
f 44/124/63 46/126/63 50/128/63 
f 50/128/64 52/129/64 54/130/64 
f 54/130/50 56/131/50 58/132/50 
f 50/128/50 54/130/50 58/132/50 
f 44/124/50 50/128/50 58/132/50 
f 44/124/45 58/132/45 74/95/45 
f 40/94/51 44/124/51 74/95/51 
f 58/132/50 62/133/50 61/134/50 
f 61/134/46 64/135/46 66/136/46 
f 58/132/45 61/134/45 66/136/45 
f 66/136/65 68/137/65 70/138/65 
f 70/138/66 72/139/66 3/140/66 
f 66/136/53 70/138/53 3/140/53 
f 58/132/45 66/136/45 3/140/45 
f 58/132/51 3/140/51 2/97/51 
f 74/95/45 58/132/45 2/97/45 
f 4/141/42 71/142/42 69/143/42 
f 69/143/42 67/144/42 65/145/42 
f 4/141/42 69/143/42 65/145/42 
f 65/145/42 63/146/42 60/147/42 
f 60/147/42 59/148/42 57/85/42 
f 65/145/42 60/147/42 57/85/42 
f 4/141/42 65/145/42 57/85/42 
f 4/141/44 57/85/44 73/84/44 
f 1/113/44 4/141/44 73/84/44 
# 144 faces

