# 3ds Max Wavefront OBJ Exporter v0.97b - (c)2007 guruware
# File Created: 30.07.2013 09:28:12

#
# object cone_low
#

v  1.000000 0.000000 -0.000000
v  0.707107 0.000000 -0.707107
v  0.000000 2.000000 -0.000000
v  -0.000000 0.000000 -1.000000
v  -0.707107 0.000000 -0.707107
v  -1.000000 0.000000 0.000000
v  -0.707107 0.000000 0.707107
v  0.000000 0.000000 1.000000
v  0.707107 0.000000 0.707107
# 9 vertices

vn 0.894427 0.447214 0.000000
vn 0.632456 0.447214 -0.632456
vn 0.838717 0.419358 -0.347408
vn 0.838717 0.419358 0.347408
vn -0.000000 0.447214 -0.894427
vn 0.347408 0.419358 -0.838717
vn -0.632456 0.447214 -0.632456
vn -0.347408 0.419359 -0.838717
vn -0.894427 0.447214 0.000000
vn -0.838717 0.419358 -0.347408
vn -0.632455 0.447214 0.632456
vn -0.838717 0.419358 0.347408
vn 0.000000 0.447214 0.894427
vn -0.347408 0.419358 0.838717
vn 0.632455 0.447214 0.632456
vn 0.347408 0.419358 0.838717
vn 0.000000 -1.000000 -0.000000
vn 1.000000 0.000000 -0.000000
# 18 vertex normals

vt 0.750000 0.000000 1.000000
vt 0.875000 0.000000 1.000000
vt 0.500000 1.000000 0.000000
vt 1.000000 0.000000 1.000000
vt 0.000000 0.000000 1.000000
vt 0.125000 0.000000 1.000000
vt 0.250000 0.000000 1.000000
vt 0.375000 0.000000 1.000000
vt 0.500000 0.000000 1.000000
vt 0.625000 0.000000 1.000000
vt 1.000000 0.500000 -0.250000
vt 0.853553 0.146447 -0.250000
vt 0.500000 0.000000 -0.250000
vt 0.146447 0.146447 -0.250000
vt 0.000000 0.500000 -0.250000
vt 0.146447 0.853553 -0.250000
vt 0.500000 1.000000 -0.250000
vt 0.853553 0.853553 -0.250000
# 18 texture coords

g cone_low
s 8
f 1/1/1 2/2/2 3/3/3 
f 3/3/3 3/3/4 1/1/1 
f 2/2/2 4/4/5 3/3/6 
f 3/3/6 3/3/3 2/2/2 
f 4/5/5 5/6/7 3/3/8 
f 3/3/8 3/3/6 4/5/5 
f 5/6/7 6/7/9 3/3/10 
f 3/3/10 3/3/8 5/6/7 
f 6/7/9 7/8/11 3/3/12 
f 3/3/12 3/3/10 6/7/9 
f 7/8/11 8/9/13 3/3/14 
f 3/3/14 3/3/12 7/8/11 
f 8/9/13 9/10/15 3/3/16 
f 3/3/16 3/3/14 8/9/13 
f 9/10/15 1/1/1 3/3/4 
f 3/3/4 3/3/16 9/10/15 
s 1
f 8/11/17 7/12/17 6/13/17 
f 6/13/17 5/14/17 4/15/17 
f 4/15/17 2/16/17 1/17/17 
f 6/13/17 4/15/17 1/17/17 
f 8/11/17 6/13/17 1/17/17 
f 9/18/17 8/11/17 1/17/17 
f 3/3/18 3/3/18 3/3/18 
f 3/3/18 3/3/18 3/3/18 
f 3/3/18 3/3/18 3/3/18 
f 3/3/18 3/3/18 3/3/18 
f 3/3/18 3/3/18 3/3/18 
f 3/3/18 3/3/18 3/3/18 
# 28 faces

