# 3ds Max Wavefront OBJ Exporter v0.97b - (c)2007 guruware
# File Created: 30.07.2013 09:28:13

#
# object cube_champfer_low
#

v  0.784677 1.000000 0.784677
v  0.784677 1.000000 -0.784677
v  -0.784677 1.000000 -0.784677
v  -0.784677 1.000000 0.784677
v  -0.784677 0.784677 -1.000000
v  -1.000000 0.784677 -0.784677
v  -1.000000 0.784677 0.784677
v  -0.784677 0.784677 1.000000
v  0.784677 0.784677 1.000000
v  1.000000 0.784677 0.784677
v  1.000000 0.784677 -0.784677
v  0.784677 0.784677 -1.000000
v  -1.000000 -0.784677 -0.784677
v  -0.784677 -0.784677 -1.000000
v  -1.000000 -0.784677 0.784677
v  -0.784677 -0.784677 1.000000
v  0.784677 -0.784677 1.000000
v  1.000000 -0.784677 0.784677
v  1.000000 -0.784677 -0.784677
v  0.784677 -0.784677 -1.000000
v  -0.784677 -1.000000 -0.784677
v  -0.784677 -1.000000 0.784677
v  0.784677 -1.000000 0.784677
v  0.784677 -1.000000 -0.784677
# 24 vertices

vn 0.341586 0.875579 0.341586
vn 0.341586 0.875579 -0.341586
vn -0.341586 0.875579 -0.341586
vn -0.341586 0.875579 0.341586
vn -0.341586 0.341586 -0.875579
vn -0.875579 0.341586 -0.341586
vn -0.875579 0.341586 0.341586
vn -0.341586 0.341586 0.875579
vn 0.341586 0.341586 0.875579
vn 0.875579 0.341586 0.341586
vn 0.875579 0.341586 -0.341586
vn 0.341586 0.341586 -0.875579
vn -0.875579 -0.341586 -0.341586
vn -0.341586 -0.341586 -0.875579
vn -0.875579 -0.341586 0.341586
vn -0.341586 -0.341586 0.875579
vn 0.341586 -0.341586 0.875579
vn 0.875579 -0.341586 0.341586
vn 0.875579 -0.341586 -0.341586
vn 0.341586 -0.341586 -0.875579
vn -0.341586 -0.875579 -0.341586
vn -0.341586 -0.875579 0.341586
vn 0.341586 -0.875579 0.341586
vn 0.341586 -0.875579 -0.341586
# 24 vertex normals

vt 0.892339 0.107661 0.000000
vt 0.892339 0.892339 0.000000
vt 0.107661 0.892339 0.000000
vt 0.107661 0.107661 0.000000
vt 0.107661 1.000000 0.000000
vt 0.000000 0.892339 0.000000
vt 0.000000 0.107661 0.000000
vt 0.107661 0.000000 0.000000
vt 0.892339 0.000000 0.000000
vt 1.000000 0.107661 0.000000
vt 1.000000 0.892339 0.000000
vt 0.892339 1.000000 0.000000
vt 0.036439 0.000000 0.000000
vt 0.036439 1.000000 0.000000
vt 0.000000 1.000000 0.000000
vt 0.000000 0.000000 0.000000
vt 0.224234 0.000000 0.000000
vt 0.224234 1.000000 0.000000
vt 0.260673 0.000000 0.000000
vt 0.260673 1.000000 0.000000
vt 0.448467 0.000000 0.000000
vt 0.448467 1.000000 0.000000
vt 0.484906 0.000000 0.000000
vt 0.484906 1.000000 0.000000
vt 0.672701 0.000000 0.000000
vt 0.672701 1.000000 0.000000
vt 0.709140 0.000000 0.000000
vt 0.709140 1.000000 0.000000
vt 1.000000 0.000000 0.000000
vt 1.000000 1.000000 0.000000
# 30 texture coords

g cube_champfer_low
s 1
f 1/1/1 2/2/2 3/3/3 
f 3/3/3 4/4/4 1/1/1 
f 3/3/3 5/5/5 6/6/6 
f 7/7/7 4/4/4 3/3/3 
f 3/3/3 6/6/6 7/7/7 
f 4/4/4 7/7/7 8/8/8 
f 9/9/9 1/1/1 4/4/4 
f 4/4/4 8/8/8 9/9/9 
f 1/1/1 9/9/9 10/10/10 
f 11/11/11 2/2/2 1/1/1 
f 1/1/1 10/10/10 11/11/11 
f 2/2/2 11/11/11 12/12/12 
f 5/5/5 3/3/3 2/2/2 
f 2/2/2 12/12/12 5/5/5 
f 13/13/13 6/14/6 5/15/5 
f 5/15/5 14/16/14 13/13/13 
f 15/17/15 7/18/7 6/14/6 
f 6/14/6 13/13/13 15/17/15 
f 16/19/16 8/20/8 7/18/7 
f 7/18/7 15/17/15 16/19/16 
f 17/21/17 9/22/9 8/20/8 
f 8/20/8 16/19/16 17/21/17 
f 18/23/18 10/24/10 9/22/9 
f 9/22/9 17/21/17 18/23/18 
f 19/25/19 11/26/11 10/24/10 
f 10/24/10 18/23/18 19/25/19 
f 20/27/20 12/28/12 11/26/11 
f 11/26/11 19/25/19 20/27/20 
f 14/29/14 5/30/5 12/28/12 
f 12/28/12 20/27/20 14/29/14 
f 14/8/14 21/4/21 13/7/13 
f 22/3/22 15/6/15 13/7/13 
f 13/7/13 21/4/21 22/3/22 
f 15/6/15 22/3/22 16/5/16 
f 23/2/23 17/12/17 16/5/16 
f 16/5/16 22/3/22 23/2/23 
f 17/12/17 23/2/23 18/11/18 
f 24/1/24 19/10/19 18/11/18 
f 18/11/18 23/2/23 24/1/24 
f 19/10/19 24/1/24 20/9/20 
f 21/4/21 14/8/14 20/9/20 
f 20/9/20 24/1/24 21/4/21 
f 22/3/22 21/4/21 24/1/24 
f 24/1/24 23/2/23 22/3/22 
# 44 faces

