# 3ds Max Wavefront OBJ Exporter v0.97b - (c)2007 guruware
# File Created: 30.07.2013 09:28:12

#
# object cylinder_low
#

v  -0.000000 -1.000000 -1.000000
v  -0.707107 -1.000000 -0.707107
v  -0.707107 1.000000 -0.707107
v  -0.000000 1.000000 -1.000000
v  -1.000000 -1.000000 0.000000
v  -1.000000 1.000000 0.000000
v  -0.707107 -1.000000 0.707107
v  -0.707107 1.000000 0.707107
v  0.000000 -1.000000 1.000000
v  0.000000 1.000000 1.000000
v  0.707107 -1.000000 0.707107
v  0.707107 1.000000 0.707107
v  1.000000 -1.000000 -0.000000
v  1.000000 1.000000 -0.000000
v  0.707107 -1.000000 -0.707107
v  0.707107 1.000000 -0.707107
# 16 vertices

vn -0.000000 0.000000 -1.000000
vn -0.707107 0.000000 -0.707107
vn -1.000000 0.000000 0.000000
vn -1.000000 -0.000000 0.000000
vn -0.707107 0.000000 0.707107
vn -0.707107 -0.000000 0.707107
vn 0.000000 0.000000 1.000000
vn 0.707107 0.000000 0.707107
vn 1.000000 0.000000 -0.000000
vn 1.000000 -0.000000 -0.000000
vn 0.707107 0.000000 -0.707107
vn 0.707107 -0.000000 -0.707107
vn 0.000000 -1.000000 -0.000000
vn 0.000000 1.000000 -0.000000
# 14 vertex normals

vt 0.750000 0.000000 1.000000
vt 0.875000 0.000000 1.000000
vt 0.875000 1.000000 1.000000
vt 0.750000 1.000000 1.000000
vt 1.000000 0.000000 1.000000
vt 1.000000 1.000000 1.000000
vt 0.000000 0.000000 1.000000
vt 0.125000 0.000000 1.000000
vt 0.125000 1.000000 1.000000
vt 0.000000 1.000000 1.000000
vt 0.250000 0.000000 1.000000
vt 0.250000 1.000000 1.000000
vt 0.375000 0.000000 1.000000
vt 0.375000 1.000000 1.000000
vt 0.500000 0.000000 1.000000
vt 0.500000 1.000000 1.000000
vt 0.625000 0.000000 1.000000
vt 0.625000 1.000000 1.000000
vt 1.000000 0.500000 -0.250000
vt 0.853553 0.146447 -0.250000
vt 0.500000 0.000000 -0.250000
vt 0.146447 0.146447 -0.250000
vt 0.000000 0.500000 -0.250000
vt 0.146447 0.853553 -0.250000
vt 0.500000 1.000000 -0.250000
vt 0.853553 0.853553 -0.250000
vt 0.146447 0.853553 0.250000
vt 0.000000 0.500000 0.250000
vt 0.146447 0.146447 0.250000
vt 0.500000 0.000000 0.250000
vt 0.853553 0.146447 0.250000
vt 1.000000 0.500000 0.250000
vt 0.853553 0.853553 0.250000
vt 0.500000 1.000000 0.250000
# 34 texture coords

g cylinder_low
s 8
f 1/1/1 2/2/2 3/3/2 
f 3/3/2 4/4/1 1/1/1 
f 2/2/2 5/5/3 6/6/4 
f 6/6/4 3/3/2 2/2/2 
f 5/7/3 7/8/5 8/9/6 
f 8/9/6 6/10/4 5/7/3 
f 7/8/5 9/11/7 10/12/7 
f 10/12/7 8/9/6 7/8/5 
f 9/11/7 11/13/8 12/14/8 
f 12/14/8 10/12/7 9/11/7 
f 11/13/8 13/15/9 14/16/10 
f 14/16/10 12/14/8 11/13/8 
f 13/15/9 15/17/11 16/18/12 
f 16/18/12 14/16/10 13/15/9 
f 15/17/11 1/1/1 4/4/1 
f 4/4/1 16/18/12 15/17/11 
s 1
f 13/19/13 11/20/13 9/21/13 
f 9/21/13 7/22/13 5/23/13 
f 5/23/13 2/24/13 1/25/13 
f 9/21/13 5/23/13 1/25/13 
f 13/19/13 9/21/13 1/25/13 
f 15/26/13 13/19/13 1/25/13 
f 3/27/14 6/28/14 8/29/14 
f 8/29/14 10/30/14 12/31/14 
f 12/31/14 14/32/14 16/33/14 
f 8/29/14 12/31/14 16/33/14 
f 3/27/14 8/29/14 16/33/14 
f 4/34/14 3/27/14 16/33/14 
# 28 faces

