# 3ds Max Wavefront OBJ Exporter v0.97b - (c)2007 guruware
# File Created: 30.07.2013 09:28:14

#
# object plane_forward
#

v  -1.000000 -1.000000 -0.000000
v  1.000000 -1.000000 -0.000000
v  1.000000 1.000000 -0.000000
v  -1.000000 1.000000 -0.000000
# 4 vertices

vn 0.000000 0.000000 1.000000
# 1 vertex normals

vt 0.000000 0.000000 0.000000
vt 1.000000 0.000000 0.000000
vt 1.000000 1.000000 0.000000
vt 0.000000 1.000000 0.000000
# 4 texture coords

g plane_forward
s 1
f 1/1/1 2/2/1 3/3/1 
f 3/3/1 4/4/1 1/1/1 
# 2 faces

