# 3ds Max Wavefront OBJ Exporter v0.97b - (c)2007 guruware
# File Created: 14.03.2013 17:19:29

#
# object sphere_globe
#

v  0.00 1.00 -0.00
v  0.56 0.71 -0.44
v  0.09 0.71 -0.70
v  -0.44 0.71 -0.56
v  -0.70 0.71 -0.09
v  -0.56 0.71 0.44
v  -0.09 0.71 0.70
v  0.44 0.71 0.56
v  0.70 0.71 0.09
v  0.79 -0.00 -0.62
v  0.12 -0.00 -0.99
v  -0.62 -0.00 -0.79
v  -0.99 -0.00 -0.12
v  -0.79 -0.00 0.62
v  -0.12 -0.00 0.99
v  0.62 -0.00 0.79
v  0.99 -0.00 0.12
v  0.56 -0.71 -0.44
v  0.09 -0.71 -0.70
v  -0.44 -0.71 -0.56
v  -0.70 -0.71 -0.09
v  -0.56 -0.71 0.44
v  -0.09 -0.71 0.70
v  0.44 -0.71 0.56
v  0.70 -0.71 0.09
v  0.00 -1.00 -0.00
# 26 vertices

vn -0.00 1.00 -0.00
vn 0.59 0.66 -0.46
vn 0.09 0.66 -0.74
vn -0.00 1.00 -0.00
vn 0.09 0.66 -0.74
vn -0.46 0.66 -0.59
vn -0.00 1.00 -0.00
vn -0.46 0.66 -0.59
vn -0.74 0.66 -0.09
vn -0.00 1.00 -0.00
vn -0.74 0.66 -0.09
vn -0.59 0.66 0.46
vn -0.00 1.00 -0.00
vn -0.59 0.66 0.46
vn -0.09 0.66 0.74
vn -0.00 1.00 -0.00
vn -0.09 0.66 0.74
vn 0.46 0.66 0.59
vn -0.00 1.00 -0.00
vn 0.46 0.66 0.59
vn 0.74 0.66 0.09
vn -0.00 1.00 -0.00
vn 0.74 0.66 0.09
vn 0.59 0.66 -0.46
vn 0.59 0.66 -0.46
vn 0.79 -0.00 -0.62
vn 0.12 -0.00 -0.99
vn 0.59 0.66 -0.46
vn 0.12 -0.00 -0.99
vn 0.09 0.66 -0.74
vn 0.09 0.66 -0.74
vn 0.12 -0.00 -0.99
vn -0.62 -0.00 -0.79
vn 0.09 0.66 -0.74
vn -0.62 -0.00 -0.79
vn -0.46 0.66 -0.59
vn -0.46 0.66 -0.59
vn -0.62 -0.00 -0.79
vn -0.99 -0.00 -0.12
vn -0.46 0.66 -0.59
vn -0.99 -0.00 -0.12
vn -0.74 0.66 -0.09
vn -0.74 0.66 -0.09
vn -0.99 -0.00 -0.12
vn -0.79 -0.00 0.62
vn -0.74 0.66 -0.09
vn -0.79 -0.00 0.62
vn -0.59 0.66 0.46
vn -0.59 0.66 0.46
vn -0.79 -0.00 0.62
vn -0.12 -0.00 0.99
vn -0.59 0.66 0.46
vn -0.12 -0.00 0.99
vn -0.09 0.66 0.74
vn -0.09 0.66 0.74
vn -0.12 -0.00 0.99
vn 0.62 -0.00 0.79
vn -0.09 0.66 0.74
vn 0.62 -0.00 0.79
vn 0.46 0.66 0.59
vn 0.46 0.66 0.59
vn 0.62 -0.00 0.79
vn 0.99 -0.00 0.12
vn 0.46 0.66 0.59
vn 0.99 -0.00 0.12
vn 0.74 0.66 0.09
vn 0.74 0.66 0.09
vn 0.99 -0.00 0.12
vn 0.79 -0.00 -0.62
vn 0.74 0.66 0.09
vn 0.79 -0.00 -0.62
vn 0.59 0.66 -0.46
vn 0.79 -0.00 -0.62
vn 0.59 -0.66 -0.46
vn 0.09 -0.66 -0.74
vn 0.79 -0.00 -0.62
vn 0.09 -0.66 -0.74
vn 0.12 -0.00 -0.99
vn 0.12 -0.00 -0.99
vn 0.09 -0.66 -0.74
vn -0.46 -0.66 -0.59
vn 0.12 -0.00 -0.99
vn -0.46 -0.66 -0.59
vn -0.62 -0.00 -0.79
vn -0.62 -0.00 -0.79
vn -0.46 -0.66 -0.59
vn -0.74 -0.66 -0.09
vn -0.62 -0.00 -0.79
vn -0.74 -0.66 -0.09
vn -0.99 -0.00 -0.12
vn -0.99 -0.00 -0.12
vn -0.74 -0.66 -0.09
vn -0.59 -0.66 0.46
vn -0.99 -0.00 -0.12
vn -0.59 -0.66 0.46
vn -0.79 -0.00 0.62
vn -0.79 -0.00 0.62
vn -0.59 -0.66 0.46
vn -0.09 -0.66 0.74
vn -0.79 -0.00 0.62
vn -0.09 -0.66 0.74
vn -0.12 -0.00 0.99
vn -0.12 -0.00 0.99
vn -0.09 -0.66 0.74
vn 0.46 -0.66 0.59
vn -0.12 -0.00 0.99
vn 0.46 -0.66 0.59
vn 0.62 -0.00 0.79
vn 0.62 -0.00 0.79
vn 0.46 -0.66 0.59
vn 0.74 -0.66 0.09
vn 0.62 -0.00 0.79
vn 0.74 -0.66 0.09
vn 0.99 -0.00 0.12
vn 0.99 -0.00 0.12
vn 0.74 -0.66 0.09
vn 0.59 -0.66 -0.46
vn 0.99 -0.00 0.12
vn 0.59 -0.66 -0.46
vn 0.79 -0.00 -0.62
vn -0.00 -1.00 -0.00
vn 0.09 -0.66 -0.74
vn 0.59 -0.66 -0.46
vn -0.00 -1.00 -0.00
vn -0.46 -0.66 -0.59
vn 0.09 -0.66 -0.74
vn -0.00 -1.00 -0.00
vn -0.74 -0.66 -0.09
vn -0.46 -0.66 -0.59
vn -0.00 -1.00 -0.00
vn -0.59 -0.66 0.46
vn -0.74 -0.66 -0.09
vn -0.00 -1.00 -0.00
vn -0.09 -0.66 0.74
vn -0.59 -0.66 0.46
vn -0.00 -1.00 -0.00
vn 0.46 -0.66 0.59
vn -0.09 -0.66 0.74
vn -0.00 -1.00 -0.00
vn 0.74 -0.66 0.09
vn 0.46 -0.66 0.59
vn -0.00 -1.00 -0.00
vn 0.59 -0.66 -0.46
vn 0.74 -0.66 0.09
# 144 vertex normals

vt 0.00 1.00 0.00
vt 0.13 1.00 0.00
vt 0.25 1.00 0.00
vt 0.38 1.00 0.00
vt 0.50 1.00 0.00
vt 0.63 1.00 0.00
vt 0.75 1.00 0.00
vt 0.87 1.00 0.00
vt 1.00 1.00 0.00
vt 0.00 0.75 0.00
vt 0.13 0.75 0.00
vt 0.25 0.75 0.00
vt 0.38 0.75 0.00
vt 0.50 0.75 0.00
vt 0.63 0.75 0.00
vt 0.75 0.75 0.00
vt 0.87 0.75 0.00
vt 1.00 0.75 0.00
vt 0.00 0.50 0.00
vt 0.13 0.50 0.00
vt 0.25 0.50 0.00
vt 0.38 0.50 0.00
vt 0.50 0.50 0.00
vt 0.63 0.50 0.00
vt 0.75 0.50 0.00
vt 0.87 0.50 0.00
vt 1.00 0.50 0.00
vt 0.00 0.25 0.00
vt 0.13 0.25 0.00
vt 0.25 0.25 0.00
vt 0.38 0.25 0.00
vt 0.50 0.25 0.00
vt 0.63 0.25 0.00
vt 0.75 0.25 0.00
vt 0.87 0.25 0.00
vt 1.00 0.25 0.00
vt 0.00 0.00 0.00
vt 0.13 0.00 0.00
vt 0.25 0.00 0.00
vt 0.38 0.00 0.00
vt 0.50 0.00 0.00
vt 0.63 0.00 0.00
vt 0.75 0.00 0.00
vt 0.87 0.00 0.00
vt 1.00 0.00 0.00
# 45 texture coords

g sphere_globe
f 1/1/1 2/10/2 3/11/3 
f 1/2/4 3/11/5 4/12/6 
f 1/3/7 4/12/8 5/13/9 
f 1/4/10 5/13/11 6/14/12 
f 1/5/13 6/14/14 7/15/15 
f 1/6/16 7/15/17 8/16/18 
f 1/7/19 8/16/20 9/17/21 
f 1/8/22 9/17/23 2/18/24 
f 2/10/25 10/19/26 11/20/27 
f 2/10/28 11/20/29 3/11/30 
f 3/11/31 11/20/32 12/21/33 
f 3/11/34 12/21/35 4/12/36 
f 4/12/37 12/21/38 13/22/39 
f 4/12/40 13/22/41 5/13/42 
f 5/13/43 13/22/44 14/23/45 
f 5/13/46 14/23/47 6/14/48 
f 6/14/49 14/23/50 15/24/51 
f 6/14/52 15/24/53 7/15/54 
f 7/15/55 15/24/56 16/25/57 
f 7/15/58 16/25/59 8/16/60 
f 8/16/61 16/25/62 17/26/63 
f 8/16/64 17/26/65 9/17/66 
f 9/17/67 17/26/68 10/27/69 
f 9/17/70 10/27/71 2/18/72 
f 10/19/73 18/28/74 19/29/75 
f 10/19/76 19/29/77 11/20/78 
f 11/20/79 19/29/80 20/30/81 
f 11/20/82 20/30/83 12/21/84 
f 12/21/85 20/30/86 21/31/87 
f 12/21/88 21/31/89 13/22/90 
f 13/22/91 21/31/92 22/32/93 
f 13/22/94 22/32/95 14/23/96 
f 14/23/97 22/32/98 23/33/99 
f 14/23/100 23/33/101 15/24/102 
f 15/24/103 23/33/104 24/34/105 
f 15/24/106 24/34/107 16/25/108 
f 16/25/109 24/34/110 25/35/111 
f 16/25/112 25/35/113 17/26/114 
f 17/26/115 25/35/116 18/36/117 
f 17/26/118 18/36/119 10/27/120 
f 26/37/121 19/29/122 18/28/123 
f 26/38/124 20/30/125 19/29/126 
f 26/39/127 21/31/128 20/30/129 
f 26/40/130 22/32/131 21/31/132 
f 26/41/133 23/33/134 22/32/135 
f 26/42/136 24/34/137 23/33/138 
f 26/43/139 25/35/140 24/34/141 
f 26/44/142 18/36/143 25/35/144 
# 48 faces

