# 3ds Max Wavefront OBJ Exporter v0.97b - (c)2007 guruware
# File Created: 14.03.2013 17:42:36

#
# object tower
#

v  0.0320 -0.0001 -0.0000
v  0.0000 -0.0001 -0.0325
v  -0.0320 -0.0001 -0.0000
v  0.0000 -0.0001 0.0325
v  0.0160 0.0630 -0.0000
v  0.0000 0.0630 -0.0163
v  -0.0160 0.0630 -0.0000
v  0.0000 0.0630 0.0163
v  0.0219 0.0800 -0.0000
v  0.0000 0.0800 -0.0223
v  -0.0219 0.0800 -0.0000
v  0.0000 0.0800 0.0223
# 12 vertices

vn 0.7018 0.1776 -0.6899
vn 0.7018 0.1776 -0.6899
vn 0.7018 0.1776 -0.6899
vn 0.7018 0.1776 -0.6899
vn 0.7018 0.1776 -0.6899
vn 0.7018 0.1776 -0.6899
vn -0.7018 0.1776 -0.6899
vn -0.7018 0.1776 -0.6899
vn -0.7018 0.1776 -0.6899
vn -0.7018 0.1776 -0.6899
vn -0.7018 0.1776 -0.6899
vn -0.7018 0.1776 -0.6899
vn -0.7018 0.1776 0.6899
vn -0.7018 0.1776 0.6899
vn -0.7018 0.1776 0.6899
vn -0.7018 0.1776 0.6899
vn -0.7018 0.1776 0.6899
vn -0.7018 0.1776 0.6899
vn 0.7018 0.1776 0.6899
vn 0.7018 0.1776 0.6899
vn 0.7018 0.1776 0.6899
vn 0.7018 0.1776 0.6899
vn 0.7018 0.1776 0.6899
vn 0.7018 0.1776 0.6899
vn 0.0000 1.0000 0.0000
vn 0.0000 1.0000 0.0000
vn 0.0000 1.0000 0.0000
vn 0.0000 1.0000 0.0000
vn 0.0000 1.0000 0.0000
vn 0.0000 1.0000 0.0000
vn 0.6917 -0.2432 -0.6800
vn 0.6917 -0.2432 -0.6800
vn 0.6917 -0.2432 -0.6800
vn 0.6917 -0.2432 -0.6800
vn 0.6917 -0.2432 -0.6800
vn 0.6917 -0.2432 -0.6800
vn -0.6917 -0.2432 -0.6800
vn -0.6917 -0.2432 -0.6800
vn -0.6917 -0.2432 -0.6800
vn -0.6917 -0.2432 -0.6800
vn -0.6917 -0.2432 -0.6800
vn -0.6917 -0.2432 -0.6800
vn -0.6917 -0.2432 0.6800
vn -0.6917 -0.2432 0.6800
vn -0.6917 -0.2432 0.6800
vn -0.6917 -0.2432 0.6800
vn -0.6917 -0.2432 0.6800
vn -0.6917 -0.2432 0.6800
vn 0.6917 -0.2432 0.6800
vn 0.6917 -0.2432 0.6800
vn 0.6917 -0.2432 0.6800
vn 0.6917 -0.2432 0.6800
vn 0.6917 -0.2432 0.6800
vn 0.6917 -0.2432 0.6800
# 54 vertex normals

vt 0.7500 0.0000 1.0000
vt 0.0000 0.0000 1.0000
vt 0.2500 0.0000 1.0000
vt 0.5000 0.0000 1.0000
vt 0.7500 1.0000 0.5000
vt 0.0000 1.0000 0.5000
vt 0.2500 1.0000 0.5000
vt 0.5000 1.0000 0.5000
vt 1.0000 0.0000 1.0000
vt 1.0000 1.0000 0.5000
vt 0.5000 0.7500 0.2500
vt 0.2500 0.5000 0.2500
vt 0.5000 0.2500 0.2500
vt 0.7500 0.5000 0.2500
# 14 texture coords

g tower
f 1/1/1 2/9/2 6/10/3 
f 6/10/4 5/5/5 1/1/6 
f 2/2/7 3/3/8 7/7/9 
f 7/7/10 6/6/11 2/2/12 
f 3/3/13 4/4/14 8/8/15 
f 8/8/16 7/7/17 3/3/18 
f 4/4/19 1/1/20 5/5/21 
f 5/5/22 8/8/23 4/4/24 
f 10/12/25 11/13/26 12/14/27 
f 12/14/28 9/11/29 10/12/30 
f 5/5/31 6/10/32 10/12/33 
f 10/12/34 9/11/35 5/5/36 
f 6/6/37 7/7/38 11/13/39 
f 11/13/40 10/12/41 6/6/42 
f 7/7/43 8/8/44 12/14/45 
f 12/14/46 11/13/47 7/7/48 
f 8/8/49 5/5/50 9/11/51 
f 9/11/52 12/14/53 8/8/54 
# 18 faces

