# 3ds Max Wavefront OBJ Exporter v0.97b - (c)2007 guruware
# File Created: 30.07.2013 09:28:14

#
# object tube_low
#

v  -0.000000 -1.000000 -1.000000
v  0.707107 1.000000 -0.707107
v  0.707107 -1.000000 -0.707107
v  -0.000000 1.000000 -1.000000
v  0.530330 1.000000 -0.530330
v  -0.000000 1.000000 -0.750000
v  0.530330 -1.000000 -0.530330
v  -0.000000 -1.000000 -0.750000
v  1.000000 1.000000 -0.000000
v  1.000000 -1.000000 -0.000000
v  0.750000 1.000000 -0.000000
v  0.750000 -1.000000 -0.000000
v  0.707107 1.000000 0.707107
v  0.707107 -1.000000 0.707107
v  0.530330 1.000000 0.530330
v  0.530330 -1.000000 0.530330
v  -0.000000 1.000000 1.000000
v  -0.000000 -1.000000 1.000000
v  -0.000000 1.000000 0.750000
v  -0.000000 -1.000000 0.750000
v  -0.707107 1.000000 0.707107
v  -0.707107 -1.000000 0.707107
v  -0.530330 1.000000 0.530330
v  -0.530330 -1.000000 0.530330
v  -1.000000 1.000000 -0.000000
v  -1.000000 -1.000000 -0.000000
v  -0.750000 1.000000 -0.000000
v  -0.750000 -1.000000 -0.000000
v  -0.707107 1.000000 -0.707107
v  -0.707107 -1.000000 -0.707107
v  -0.530330 1.000000 -0.530330
v  -0.530330 -1.000000 -0.530330
# 32 vertices

vn -0.000000 0.000000 -1.000000
vn 0.707107 0.000000 -0.707107
vn 0.000000 1.000000 -0.000000
vn -0.000000 0.000000 1.000000
vn -0.707107 0.000000 0.707107
vn 0.000000 0.000000 1.000000
vn 0.000000 -1.000000 -0.000000
vn 1.000000 0.000000 -0.000000
vn 1.000000 0.000000 0.000000
vn -1.000000 0.000000 -0.000000
vn 0.707107 0.000000 0.707107
vn -0.707107 0.000000 -0.707107
vn 0.000000 0.000000 -1.000000
# 13 vertex normals

vt 0.000000 0.000000 0.000000
vt 0.250000 0.125000 0.000000
vt 0.000000 0.125000 0.000000
vt 0.250000 0.000000 0.000000
vt 0.500000 0.125000 0.000000
vt 0.500000 0.000000 0.000000
vt 0.750000 0.125000 0.000000
vt 0.750000 0.000000 0.000000
vt 1.000000 0.125000 0.000000
vt 1.000000 0.000000 0.000000
vt 0.250000 0.250000 0.000000
vt 0.000000 0.250000 0.000000
vt 0.500000 0.250000 0.000000
vt 0.750000 0.250000 0.000000
vt 1.000000 0.250000 0.000000
vt 0.250000 0.375000 0.000000
vt 0.000000 0.375000 0.000000
vt 0.500000 0.375000 0.000000
vt 0.750000 0.375000 0.000000
vt 1.000000 0.375000 0.000000
vt 0.250000 0.500000 0.000000
vt 0.000000 0.500000 0.000000
vt 0.500000 0.500000 0.000000
vt 0.750000 0.500000 0.000000
vt 1.000000 0.500000 0.000000
vt 0.250000 0.625000 0.000000
vt 0.000000 0.625000 0.000000
vt 0.500000 0.625000 0.000000
vt 0.750000 0.625000 0.000000
vt 1.000000 0.625000 0.000000
vt 0.250000 0.750000 0.000000
vt 0.000000 0.750000 0.000000
vt 0.500000 0.750000 0.000000
vt 0.750000 0.750000 0.000000
vt 1.000000 0.750000 0.000000
vt 0.250000 0.875000 0.000000
vt 0.000000 0.875000 0.000000
vt 0.500000 0.875000 0.000000
vt 0.750000 0.875000 0.000000
vt 1.000000 0.875000 0.000000
vt 0.250000 1.000000 0.000000
vt 0.000000 1.000000 0.000000
vt 0.500000 1.000000 0.000000
vt 0.750000 1.000000 0.000000
vt 1.000000 1.000000 0.000000
# 45 texture coords

g tube_low
s 2
f 1/1/1 2/2/2 3/3/2 
f 1/1/1 4/4/1 2/2/2 
s 4
f 4/4/3 5/5/3 2/2/3 
f 4/4/3 6/6/3 5/5/3 
s 2
f 6/6/4 7/7/5 5/5/5 
f 6/6/4 8/8/6 7/7/5 
s 4
f 8/8/7 3/9/7 7/7/7 
f 8/8/7 1/10/7 3/9/7 
s 2
f 3/3/2 9/11/8 10/12/9 
f 3/3/2 2/2/2 9/11/8 
s 4
f 2/2/3 11/13/3 9/11/3 
f 2/2/3 5/5/3 11/13/3 
s 2
f 5/5/5 12/14/10 11/13/10 
f 5/5/5 7/7/5 12/14/10 
s 4
f 7/7/7 10/15/7 12/14/7 
f 7/7/7 3/9/7 10/15/7 
s 2
f 10/12/9 13/16/11 14/17/11 
f 10/12/9 9/11/8 13/16/11 
s 4
f 9/11/3 15/18/3 13/16/3 
f 9/11/3 11/13/3 15/18/3 
s 2
f 11/13/10 16/19/12 15/18/12 
f 11/13/10 12/14/10 16/19/12 
s 4
f 12/14/7 14/20/7 16/19/7 
f 12/14/7 10/15/7 14/20/7 
s 2
f 14/17/11 17/21/4 18/22/4 
f 14/17/11 13/16/11 17/21/4 
s 4
f 13/16/3 19/23/3 17/21/3 
f 13/16/3 15/18/3 19/23/3 
s 2
f 15/18/12 20/24/13 19/23/13 
f 15/18/12 16/19/12 20/24/13 
s 4
f 16/19/7 18/25/7 20/24/7 
f 16/19/7 14/20/7 18/25/7 
s 2
f 18/22/4 21/26/5 22/27/5 
f 18/22/4 17/21/4 21/26/5 
s 4
f 17/21/3 23/28/3 21/26/3 
f 17/21/3 19/23/3 23/28/3 
s 2
f 19/23/13 24/29/2 23/28/2 
f 19/23/13 20/24/13 24/29/2 
s 4
f 20/24/7 22/30/7 24/29/7 
f 20/24/7 18/25/7 22/30/7 
s 2
f 22/27/5 25/31/10 26/32/10 
f 22/27/5 21/26/5 25/31/10 
s 4
f 21/26/3 27/33/3 25/31/3 
f 21/26/3 23/28/3 27/33/3 
s 2
f 23/28/2 28/34/9 27/33/9 
f 23/28/2 24/29/2 28/34/9 
s 4
f 24/29/7 26/35/7 28/34/7 
f 24/29/7 22/30/7 26/35/7 
s 2
f 26/32/10 29/36/12 30/37/12 
f 26/32/10 25/31/10 29/36/12 
s 4
f 25/31/3 31/38/3 29/36/3 
f 25/31/3 27/33/3 31/38/3 
s 2
f 27/33/9 32/39/11 31/38/11 
f 27/33/9 28/34/9 32/39/11 
s 4
f 28/34/7 30/40/7 32/39/7 
f 28/34/7 26/35/7 30/40/7 
s 2
f 30/37/12 4/41/1 1/42/1 
f 30/37/12 29/36/12 4/41/1 
s 4
f 29/36/3 6/43/3 4/41/3 
f 29/36/3 31/38/3 6/43/3 
s 2
f 31/38/11 8/44/6 6/43/4 
f 31/38/11 32/39/11 8/44/6 
s 4
f 32/39/7 1/45/7 8/44/7 
f 32/39/7 30/40/7 1/45/7 
# 64 faces

