# 3ds Max Wavefront OBJ Exporter v0.97b - (c)2007 guruware
# File Created: 30.07.2013 09:28:14

#
# object tube
#

v  -0.000000 -1.000000 -1.000000
v  0.382683 1.000000 -0.923880
v  0.382683 -1.000000 -0.923880
v  -0.000000 1.000000 -1.000000
v  0.287013 1.000000 -0.692910
v  -0.000000 1.000000 -0.750000
v  0.287013 -1.000000 -0.692910
v  -0.000000 -1.000000 -0.750000
v  0.707107 1.000000 -0.707107
v  0.707107 -1.000000 -0.707107
v  0.530330 1.000000 -0.530330
v  0.530330 -1.000000 -0.530330
v  0.923880 1.000000 -0.382683
v  0.923880 -1.000000 -0.382683
v  0.692910 1.000000 -0.287013
v  0.692910 -1.000000 -0.287013
v  1.000000 1.000000 0.000000
v  1.000000 -1.000000 0.000000
v  0.750000 1.000000 0.000000
v  0.750000 -1.000000 0.000000
v  0.923880 1.000000 0.382683
v  0.923880 -1.000000 0.382683
v  0.692910 1.000000 0.287013
v  0.692910 -1.000000 0.287013
v  0.707107 1.000000 0.707107
v  0.707107 -1.000000 0.707107
v  0.530330 1.000000 0.530330
v  0.530330 -1.000000 0.530330
v  0.382683 1.000000 0.923880
v  0.382683 -1.000000 0.923880
v  0.287012 1.000000 0.692910
v  0.287012 -1.000000 0.692910
v  -0.000000 1.000000 1.000000
v  -0.000000 -1.000000 1.000000
v  -0.000000 1.000000 0.750000
v  -0.000000 -1.000000 0.750000
v  -0.382684 1.000000 0.923879
v  -0.382684 -1.000000 0.923879
v  -0.287013 1.000000 0.692910
v  -0.287013 -1.000000 0.692910
v  -0.707107 1.000000 0.707107
v  -0.707107 -1.000000 0.707107
v  -0.530330 1.000000 0.530330
v  -0.530330 -1.000000 0.530330
v  -0.923880 1.000000 0.382683
v  -0.923880 -1.000000 0.382683
v  -0.692910 1.000000 0.287012
v  -0.692910 -1.000000 0.287012
v  -1.000000 1.000000 -0.000000
v  -1.000000 -1.000000 -0.000000
v  -0.750000 1.000000 -0.000000
v  -0.750000 -1.000000 -0.000000
v  -0.923880 1.000000 -0.382683
v  -0.923880 -1.000000 -0.382683
v  -0.692910 1.000000 -0.287013
v  -0.692910 -1.000000 -0.287013
v  -0.707107 1.000000 -0.707107
v  -0.707107 -1.000000 -0.707107
v  -0.530330 1.000000 -0.530330
v  -0.530330 -1.000000 -0.530330
v  -0.382684 1.000000 -0.923880
v  -0.382684 -1.000000 -0.923880
v  -0.287013 1.000000 -0.692910
v  -0.287013 -1.000000 -0.692910
# 64 vertices

vn -0.000000 0.000000 -1.000000
vn 0.382683 0.000000 -0.923880
vn 0.000000 0.000000 -1.000000
vn 0.000000 1.000000 -0.000000
vn -0.000000 0.000000 1.000000
vn -0.382683 0.000000 0.923880
vn 0.000000 -1.000000 -0.000000
vn 0.707107 0.000000 -0.707107
vn -0.707107 0.000000 0.707107
vn 0.923880 0.000000 -0.382683
vn -0.923880 0.000000 0.382683
vn 1.000000 0.000000 0.000000
vn 1.000000 0.000000 -0.000000
vn -1.000000 0.000000 -0.000000
vn 0.923880 0.000000 0.382684
vn -0.923880 0.000000 -0.382683
vn -0.923880 0.000000 -0.382684
vn 0.707107 0.000000 0.707107
vn -0.707107 0.000000 -0.707107
vn 0.382683 0.000000 0.923880
vn -0.382683 0.000000 -0.923880
vn -0.382684 0.000000 0.923879
vn 0.382684 0.000000 -0.923879
vn 0.923880 0.000000 0.382683
vn -0.382684 0.000000 -0.923880
vn -0.382684 0.000000 -0.923879
vn 0.382684 0.000000 0.923880
# 27 vertex normals

vt 0.000000 0.000000 0.000000
vt 0.250000 0.062500 0.000000
vt 0.000000 0.062500 0.000000
vt 0.250000 0.000000 0.000000
vt 0.500000 0.062500 0.000000
vt 0.500000 0.000000 0.000000
vt 0.750000 0.062500 0.000000
vt 0.750000 0.000000 0.000000
vt 1.000000 0.062500 0.000000
vt 1.000000 0.000000 0.000000
vt 0.250000 0.125000 0.000000
vt 0.000000 0.125000 0.000000
vt 0.500000 0.125000 0.000000
vt 0.750000 0.125000 0.000000
vt 1.000000 0.125000 0.000000
vt 0.250000 0.187500 0.000000
vt 0.000000 0.187500 0.000000
vt 0.500000 0.187500 0.000000
vt 0.750000 0.187500 0.000000
vt 1.000000 0.187500 0.000000
vt 0.250000 0.250000 0.000000
vt 0.000000 0.250000 0.000000
vt 0.500000 0.250000 0.000000
vt 0.750000 0.250000 0.000000
vt 1.000000 0.250000 0.000000
vt 0.250000 0.312500 0.000000
vt 0.000000 0.312500 0.000000
vt 0.500000 0.312500 0.000000
vt 0.750000 0.312500 0.000000
vt 1.000000 0.312500 0.000000
vt 0.250000 0.375000 0.000000
vt 0.000000 0.375000 0.000000
vt 0.500000 0.375000 0.000000
vt 0.750000 0.375000 0.000000
vt 1.000000 0.375000 0.000000
vt 0.250000 0.437500 0.000000
vt 0.000000 0.437500 0.000000
vt 0.500000 0.437500 0.000000
vt 0.750000 0.437500 0.000000
vt 1.000000 0.437500 0.000000
vt 0.250000 0.500000 0.000000
vt 0.000000 0.500000 0.000000
vt 0.500000 0.500000 0.000000
vt 0.750000 0.500000 0.000000
vt 1.000000 0.500000 0.000000
vt 0.250000 0.562500 0.000000
vt 0.000000 0.562500 0.000000
vt 0.500000 0.562500 0.000000
vt 0.750000 0.562500 0.000000
vt 1.000000 0.562500 0.000000
vt 0.250000 0.625000 0.000000
vt 0.000000 0.625000 0.000000
vt 0.500000 0.625000 0.000000
vt 0.750000 0.625000 0.000000
vt 1.000000 0.625000 0.000000
vt 0.250000 0.687500 0.000000
vt 0.000000 0.687500 0.000000
vt 0.500000 0.687500 0.000000
vt 0.750000 0.687500 0.000000
vt 1.000000 0.687500 0.000000
vt 0.250000 0.750000 0.000000
vt 0.000000 0.750000 0.000000
vt 0.500000 0.750000 0.000000
vt 0.750000 0.750000 0.000000
vt 1.000000 0.750000 0.000000
vt 0.250000 0.812500 0.000000
vt 0.000000 0.812500 0.000000
vt 0.500000 0.812500 0.000000
vt 0.750000 0.812500 0.000000
vt 1.000000 0.812500 0.000000
vt 0.250000 0.875000 0.000000
vt 0.000000 0.875000 0.000000
vt 0.500000 0.875000 0.000000
vt 0.750000 0.875000 0.000000
vt 1.000000 0.875000 0.000000
vt 0.250000 0.937500 0.000000
vt 0.000000 0.937500 0.000000
vt 0.500000 0.937500 0.000000
vt 0.750000 0.937500 0.000000
vt 1.000000 0.937500 0.000000
vt 0.250000 1.000000 0.000000
vt 0.000000 1.000000 0.000000
vt 0.500000 1.000000 0.000000
vt 0.750000 1.000000 0.000000
vt 1.000000 1.000000 0.000000
# 85 texture coords

g tube
s 2
f 1/1/1 2/2/2 3/3/2 
f 1/1/1 4/4/3 2/2/2 
s 4
f 4/4/4 5/5/4 2/2/4 
f 4/4/4 6/6/4 5/5/4 
s 2
f 6/6/5 7/7/6 5/5/6 
f 6/6/5 8/8/5 7/7/6 
s 4
f 8/8/7 3/9/7 7/7/7 
f 8/8/7 1/10/7 3/9/7 
s 2
f 3/3/2 9/11/8 10/12/8 
f 3/3/2 2/2/2 9/11/8 
s 4
f 2/2/4 11/13/4 9/11/4 
f 2/2/4 5/5/4 11/13/4 
s 2
f 5/5/6 12/14/9 11/13/9 
f 5/5/6 7/7/6 12/14/9 
s 4
f 7/7/7 10/15/7 12/14/7 
f 7/7/7 3/9/7 10/15/7 
s 2
f 10/12/8 13/16/10 14/17/10 
f 10/12/8 9/11/8 13/16/10 
s 4
f 9/11/4 15/18/4 13/16/4 
f 9/11/4 11/13/4 15/18/4 
s 2
f 11/13/9 16/19/11 15/18/11 
f 11/13/9 12/14/9 16/19/11 
s 4
f 12/14/7 14/20/7 16/19/7 
f 12/14/7 10/15/7 14/20/7 
s 2
f 14/17/10 17/21/12 18/22/13 
f 14/17/10 13/16/10 17/21/12 
s 4
f 13/16/4 19/23/4 17/21/4 
f 13/16/4 15/18/4 19/23/4 
s 2
f 15/18/11 20/24/14 19/23/14 
f 15/18/11 16/19/11 20/24/14 
s 4
f 16/19/7 18/25/7 20/24/7 
f 16/19/7 14/20/7 18/25/7 
s 2
f 18/22/13 21/26/15 22/27/15 
f 18/22/13 17/21/12 21/26/15 
s 4
f 17/21/4 23/28/4 21/26/4 
f 17/21/4 19/23/4 23/28/4 
s 2
f 19/23/14 24/29/16 23/28/17 
f 19/23/14 20/24/14 24/29/16 
s 4
f 20/24/7 22/30/7 24/29/7 
f 20/24/7 18/25/7 22/30/7 
s 2
f 22/27/15 25/31/18 26/32/18 
f 22/27/15 21/26/15 25/31/18 
s 4
f 21/26/4 27/33/4 25/31/4 
f 21/26/4 23/28/4 27/33/4 
s 2
f 23/28/17 28/34/19 27/33/19 
f 23/28/17 24/29/16 28/34/19 
s 4
f 24/29/7 26/35/7 28/34/7 
f 24/29/7 22/30/7 26/35/7 
s 2
f 26/32/18 29/36/20 30/37/20 
f 26/32/18 25/31/18 29/36/20 
s 4
f 25/31/4 31/38/4 29/36/4 
f 25/31/4 27/33/4 31/38/4 
s 2
f 27/33/19 32/39/21 31/38/21 
f 27/33/19 28/34/19 32/39/21 
s 4
f 28/34/7 30/40/7 32/39/7 
f 28/34/7 26/35/7 30/40/7 
s 2
f 30/37/20 33/41/5 34/42/5 
f 30/37/20 29/36/20 33/41/5 
s 4
f 29/36/4 35/43/4 33/41/4 
f 29/36/4 31/38/4 35/43/4 
s 2
f 31/38/21 36/44/3 35/43/3 
f 31/38/21 32/39/21 36/44/3 
s 4
f 32/39/7 34/45/7 36/44/7 
f 32/39/7 30/40/7 34/45/7 
s 2
f 34/42/5 37/46/22 38/47/22 
f 34/42/5 33/41/5 37/46/22 
s 4
f 33/41/4 39/48/4 37/46/4 
f 33/41/4 35/43/4 39/48/4 
s 2
f 35/43/3 40/49/23 39/48/23 
f 35/43/3 36/44/3 40/49/23 
s 4
f 36/44/7 38/50/7 40/49/7 
f 36/44/7 34/45/7 38/50/7 
s 2
f 38/47/22 41/51/9 42/52/9 
f 38/47/22 37/46/22 41/51/9 
s 4
f 37/46/4 43/53/4 41/51/4 
f 37/46/4 39/48/4 43/53/4 
s 2
f 39/48/23 44/54/8 43/53/8 
f 39/48/23 40/49/23 44/54/8 
s 4
f 40/49/7 42/55/7 44/54/7 
f 40/49/7 38/50/7 42/55/7 
s 2
f 42/52/9 45/56/11 46/57/11 
f 42/52/9 41/51/9 45/56/11 
s 4
f 41/51/4 47/58/4 45/56/4 
f 41/51/4 43/53/4 47/58/4 
s 2
f 43/53/8 48/59/10 47/58/10 
f 43/53/8 44/54/8 48/59/10 
s 4
f 44/54/7 46/60/7 48/59/7 
f 44/54/7 42/55/7 46/60/7 
s 2
f 46/57/11 49/61/14 50/62/14 
f 46/57/11 45/56/11 49/61/14 
s 4
f 45/56/4 51/63/4 49/61/4 
f 45/56/4 47/58/4 51/63/4 
s 2
f 47/58/10 52/64/12 51/63/12 
f 47/58/10 48/59/10 52/64/12 
s 4
f 48/59/7 50/65/7 52/64/7 
f 48/59/7 46/60/7 50/65/7 
s 2
f 50/62/14 53/66/16 54/67/16 
f 50/62/14 49/61/14 53/66/16 
s 4
f 49/61/4 55/68/4 53/66/4 
f 49/61/4 51/63/4 55/68/4 
s 2
f 51/63/12 56/69/24 55/68/24 
f 51/63/12 52/64/12 56/69/24 
s 4
f 52/64/7 54/70/7 56/69/7 
f 52/64/7 50/65/7 54/70/7 
s 2
f 54/67/16 57/71/19 58/72/19 
f 54/67/16 53/66/16 57/71/19 
s 4
f 53/66/4 59/73/4 57/71/4 
f 53/66/4 55/68/4 59/73/4 
s 2
f 55/68/24 60/74/18 59/73/18 
f 55/68/24 56/69/24 60/74/18 
s 4
f 56/69/7 58/75/7 60/74/7 
f 56/69/7 54/70/7 58/75/7 
s 2
f 58/72/19 61/76/25 62/77/26 
f 58/72/19 57/71/19 61/76/25 
s 4
f 57/71/4 63/78/4 61/76/4 
f 57/71/4 59/73/4 63/78/4 
s 2
f 59/73/18 64/79/27 63/78/20 
f 59/73/18 60/74/18 64/79/27 
s 4
f 60/74/7 62/80/7 64/79/7 
f 60/74/7 58/75/7 62/80/7 
s 2
f 62/77/26 4/81/3 1/82/1 
f 62/77/26 61/76/25 4/81/3 
s 4
f 61/76/4 6/83/4 4/81/4 
f 61/76/4 63/78/4 6/83/4 
s 2
f 63/78/20 8/84/5 6/83/5 
f 63/78/20 64/79/27 8/84/5 
s 4
f 64/79/7 1/85/7 8/84/7 
f 64/79/7 62/80/7 1/85/7 
# 128 faces

